<svg xmlns="http://www.w3.org/2000/svg" width="2600" height="1100"><path d="M 108 550 C 250 550 250 275 392 275" stroke="#8888FF" fill="none" stroke-width="1"/><path d="M 408 275 C 550 275 550 78.57142857142857 692 78.57142857142857" stroke="#8888FF" fill="none" stroke-width="1"/><path d="M 708 78.57142857142857 C 850 78.57142857142857 850 55 992 55" stroke="#8888FF" fill="none" stroke-width="1"/><path d="M 1008 55 C 1150 55 1150 25 1292 25" stroke="#8888FF" fill="none" stroke-width="1"/><a href="javascript:void(0)"><circle cx="1300" cy="25" r="8" stroke="#FF6347" fill="#FFB6C1" stroke-width="2"/></a><a href="javascript:void(0)" target="_blank"><text x="1312" y="31.4" font-family="Georgia, serif" font-style="italic" font-size="16" fill="#333">Quaternion Ring</text></a><path d="M 1008 55 C 1000 55 1000 385 992 385" stroke="#8888FF" fill="none" stroke-width="1"/><path d="M 1008 385 C 1150 385 1150 275 1292 275" stroke="#8888FF" fill="none" stroke-width="1"/><path d="M 1308 275 C 1450 275 1450 117.85714285714286 1592 117.85714285714286" stroke="#8888FF" fill="none" stroke-width="1"/><path d="M 1608 117.85714285714286 C 1450 117.85714285714286 1450 475 1292 475" stroke="#8888FF" fill="none" stroke-width="1"/><a href="javascript:void(0)"><circle cx="1300" cy="475" r="8" stroke="#FF6347" fill="#FFB6C1" stroke-width="2"/></a><a href="javascript:void(0)" target="_blank"><text x="1312" y="481.4" font-family="Georgia, serif" font-style="italic" font-size="16" fill="#333">Real Value Function</text></a><path d="M 1608 117.85714285714286 C 1450 117.85714285714286 1450 25 1292 25" stroke="#8888FF" fill="none" stroke-width="1"/><path d="M 1608 117.85714285714286 C 1750 117.85714285714286 1750 481.25 1892 481.25" stroke="#8888FF" fill="none" stroke-width="1"/><path d="M 1908 481.25 C 1600 481.25 1600 975 1292 975" stroke="#8888FF" fill="none" stroke-width="1"/><path d="M 1308 975 C 1300 975 1300 225 1292 225" stroke="#8888FF" fill="none" stroke-width="1"/><a href="javascript:void(0)"><circle cx="1300" cy="225" r="8" stroke="#FF6347" fill="#FFB6C1" stroke-width="2"/></a><a href="javascript:void(0)" target="_blank"><text x="1312" y="231.4" font-family="Georgia, serif" font-style="italic" font-size="16" fill="#333">Lie Group</text></a><a href="javascript:void(0)"><circle cx="1300" cy="975" r="8" stroke="#FF6347" fill="#FFB6C1" stroke-width="2"/></a><a href="javascript:void(0)" target="_blank"><text x="1312" y="981.4" font-family="Georgia, serif" font-style="italic" font-size="16" fill="#333">Manifold</text></a><path d="M 1908 481.25 C 2050 481.25 2050 916.6666666666667 2192 916.6666666666667" stroke="#8888FF" fill="none" stroke-width="1"/><a href="javascript:void(0)"><circle cx="2200" cy="916.6666666666667" r="8" stroke="#FF6347" fill="#FFB6C1" stroke-width="2"/></a><a href="javascript:void(0)" target="_blank"><text x="2212" y="923.0666666666667" font-family="Georgia, serif" font-style="italic" font-size="16" fill="#333">Knot</text></a><a href="javascript:void(0)"><circle cx="1900" cy="481.25" r="8" stroke="#FF6347" fill="#FFB6C1" stroke-width="2"/></a><a href="javascript:void(0)" target="_blank"><text x="1912" y="487.65" font-family="Georgia, serif" font-style="italic" font-size="16" fill="#333">Euclidean Space</text></a><path d="M 1608 117.85714285714286 C 1600 117.85714285714286 1600 196.42857142857142 1592 196.42857142857142" stroke="#8888FF" fill="none" stroke-width="1"/><path d="M 1608 196.42857142857142 C 1450 196.42857142857142 1450 775 1292 775" stroke="#8888FF" fill="none" stroke-width="1"/><path d="M 1308 775 C 1450 775 1450 667.8571428571429 1592 667.8571428571429" stroke="#8888FF" fill="none" stroke-width="1"/><a href="javascript:void(0)"><circle cx="1600" cy="667.8571428571429" r="8" stroke="#FF6347" fill="#FFB6C1" stroke-width="2"/></a><a href="javascript:void(0)" target="_blank"><text x="1612" y="674.2571428571429" font-family="Georgia, serif" font-style="italic" font-size="16" fill="#333">Gamma Function</text></a><path d="M 1308 775 C 1450 775 1450 746.4285714285714 1592 746.4285714285714" stroke="#8888FF" fill="none" stroke-width="1"/><a href="javascript:void(0)"><circle cx="1600" cy="746.4285714285714" r="8" stroke="#FF6347" fill="#FFB6C1" stroke-width="2"/></a><a href="javascript:void(0)" target="_blank"><text x="1612" y="752.8285714285714" font-family="Georgia, serif" font-style="italic" font-size="16" fill="#333">Riemann Zeta Function</text></a><path d="M 1308 775 C 1450 775 1450 825 1592 825" stroke="#8888FF" fill="none" stroke-width="1"/><a href="javascript:void(0)"><circle cx="1600" cy="825" r="8" stroke="#FF6347" fill="#FFB6C1" stroke-width="2"/></a><a href="javascript:void(0)" target="_blank"><text x="1612" y="831.4" font-family="Georgia, serif" font-style="italic" font-size="16" fill="#333">Hypergeometric Function</text></a><a href="javascript:void(0)"><circle cx="1300" cy="775" r="8" stroke="#FF6347" fill="#FFB6C1" stroke-width="2"/></a><a href="javascript:void(0)" target="_blank"><text x="1312" y="781.4" font-family="Georgia, serif" font-style="italic" font-size="16" fill="#333">Complex Value Function</text></a><a href="javascript:void(0)"><circle cx="1600" cy="196.42857142857142" r="8" stroke="#FF6347" fill="#FFB6C1" stroke-width="2"/></a><a href="javascript:void(0)" target="_blank"><text x="1612" y="202.82857142857142" font-family="Georgia, serif" font-style="italic" font-size="16" fill="#333">Complex Field</text></a><a href="javascript:void(0)"><circle cx="1600" cy="117.85714285714286" r="8" stroke="#FF6347" fill="#FFB6C1" stroke-width="2"/></a><a href="javascript:void(0)" target="_blank"><text x="1612" y="124.25714285714287" font-family="Georgia, serif" font-style="italic" font-size="16" fill="#333">Real Field</text></a><a href="javascript:void(0)"><circle cx="1300" cy="275" r="8" stroke="#FF6347" fill="#FFB6C1" stroke-width="2"/></a><a href="javascript:void(0)" target="_blank"><text x="1312" y="281.4" font-family="Georgia, serif" font-style="italic" font-size="16" fill="#333">Rational Number Field</text></a><path d="M 1008 385 C 1150 385 1150 325 1292 325" stroke="#8888FF" fill="none" stroke-width="1"/><a href="javascript:void(0)"><circle cx="1300" cy="325" r="8" stroke="#FF6347" fill="#FFB6C1" stroke-width="2"/></a><a href="javascript:void(0)" target="_blank"><text x="1312" y="331.4" font-family="Georgia, serif" font-style="italic" font-size="16" fill="#333">Mobius Function</text></a><path d="M 1008 385 C 1150 385 1150 375 1292 375" stroke="#8888FF" fill="none" stroke-width="1"/><path d="M 1308 375 C 1450 375 1450 275 1592 275" stroke="#8888FF" fill="none" stroke-width="1"/><a href="javascript:void(0)"><circle cx="1600" cy="275" r="8" stroke="#FF6347" fill="#FFB6C1" stroke-width="2"/></a><a href="javascript:void(0)" target="_blank"><text x="1612" y="281.4" font-family="Georgia, serif" font-style="italic" font-size="16" fill="#333">Prime</text></a><a href="javascript:void(0)"><circle cx="1300" cy="375" r="8" stroke="#FF6347" fill="#FFB6C1" stroke-width="2"/></a><a href="javascript:void(0)" target="_blank"><text x="1312" y="381.4" font-family="Georgia, serif" font-style="italic" font-size="16" fill="#333">Division with Remainder</text></a><a href="javascript:void(0)"><circle cx="1000" cy="385" r="8" stroke="#FF6347" fill="#FFB6C1" stroke-width="2"/></a><a href="javascript:void(0)" target="_blank"><text x="1012" y="391.4" font-family="Georgia, serif" font-style="italic" font-size="16" fill="#333">Integer Ring</text></a><path d="M 1008 55 C 1150 55 1150 75 1292 75" stroke="#8888FF" fill="none" stroke-width="1"/><path d="M 1308 75 C 1450 75 1450 39.285714285714285 1592 39.285714285714285" stroke="#8888FF" fill="none" stroke-width="1"/><path d="M 1608 39.285714285714285 C 1750 39.285714285714285 1750 68.75 1892 68.75" stroke="#8888FF" fill="none" stroke-width="1"/><a href="javascript:void(0)"><circle cx="1900" cy="68.75" r="8" stroke="#FF6347" fill="#FFB6C1" stroke-width="2"/></a><a href="javascript:void(0)" target="_blank"><text x="1912" y="75.15" font-family="Georgia, serif" font-style="italic" font-size="16" fill="#333">Projective Space</text></a><path d="M 1608 39.285714285714285 C 1450 39.285714285714285 1450 575 1292 575" stroke="#8888FF" fill="none" stroke-width="1"/><a href="javascript:void(0)"><circle cx="1300" cy="575" r="8" stroke="#FF6347" fill="#FFB6C1" stroke-width="2"/></a><a href="javascript:void(0)" target="_blank"><text x="1312" y="581.4" font-family="Georgia, serif" font-style="italic" font-size="16" fill="#333">Linear Transformation</text></a><path d="M 1608 39.285714285714285 C 1750 39.285714285714285 1750 206.25 1892 206.25" stroke="#8888FF" fill="none" stroke-width="1"/><path d="M 1908 206.25 C 2050 206.25 2050 183.33333333333334 2192 183.33333333333334" stroke="#8888FF" fill="none" stroke-width="1"/><path d="M 2208 183.33333333333334 C 2350 183.33333333333334 2350 275 2492 275" stroke="#8888FF" fill="none" stroke-width="1"/><a href="javascript:void(0)"><circle cx="2500" cy="275" r="8" stroke="#FF6347" fill="#FFB6C1" stroke-width="2"/></a><a href="javascript:void(0)" target="_blank"><text x="2512" y="281.4" font-family="Georgia, serif" font-style="italic" font-size="16" fill="#333">Convolution</text></a><path d="M 2208 183.33333333333334 C 1900 183.33333333333334 1900 903.5714285714286 1592 903.5714285714286" stroke="#8888FF" fill="none" stroke-width="1"/><path d="M 1608 903.5714285714286 C 1750 903.5714285714286 1750 481.25 1892 481.25" stroke="#8888FF" fill="none" stroke-width="1"/><a href="javascript:void(0)"><circle cx="1600" cy="903.5714285714286" r="8" stroke="#FF6347" fill="#FFB6C1" stroke-width="2"/></a><a href="javascript:void(0)" target="_blank"><text x="1612" y="909.9714285714285" font-family="Georgia, serif" font-style="italic" font-size="16" fill="#333">Hilbert Space</text></a><a href="javascript:void(0)"><circle cx="2200" cy="183.33333333333334" r="8" stroke="#FF6347" fill="#FFB6C1" stroke-width="2"/></a><a href="javascript:void(0)" target="_blank"><text x="2212" y="189.73333333333335" font-family="Georgia, serif" font-style="italic" font-size="16" fill="#333">Inner Poduct Space</text></a><a href="javascript:void(0)"><circle cx="1900" cy="206.25" r="8" stroke="#FF6347" fill="#FFB6C1" stroke-width="2"/></a><a href="javascript:void(0)" target="_blank"><text x="1912" y="212.65" font-family="Georgia, serif" font-style="italic" font-size="16" fill="#333">Normed Linear Space</text></a><path d="M 1608 39.285714285714285 C 1750 39.285714285714285 1750 343.75 1892 343.75" stroke="#8888FF" fill="none" stroke-width="1"/><path d="M 1908 343.75 C 2050 343.75 2050 550 2192 550" stroke="#8888FF" fill="none" stroke-width="1"/><path d="M 2208 550 C 2350 550 2350 825 2492 825" stroke="#8888FF" fill="none" stroke-width="1"/><a href="javascript:void(0)"><circle cx="2500" cy="825" r="8" stroke="#FF6347" fill="#FFB6C1" stroke-width="2"/></a><a href="javascript:void(0)" target="_blank"><text x="2512" y="831.4" font-family="Georgia, serif" font-style="italic" font-size="16" fill="#333">Simplex</text></a><a href="javascript:void(0)"><circle cx="2200" cy="550" r="8" stroke="#FF6347" fill="#FFB6C1" stroke-width="2"/></a><a href="javascript:void(0)" target="_blank"><text x="2212" y="556.4" font-family="Georgia, serif" font-style="italic" font-size="16" fill="#333">Polyhedron</text></a><path d="M 1908 343.75 C 1900 343.75 1900 343.75 1892 343.75" stroke="#8888FF" fill="none" stroke-width="1"/><a href="javascript:void(0)"><circle cx="1900" cy="343.75" r="8" stroke="#FF6347" fill="#FFB6C1" stroke-width="2"/></a><a href="javascript:void(0)" target="_blank"><text x="1912" y="350.15" font-family="Georgia, serif" font-style="italic" font-size="16" fill="#333">Affine Space</text></a><a href="javascript:void(0)"><circle cx="1600" cy="39.285714285714285" r="8" stroke="#FF6347" fill="#FFB6C1" stroke-width="2"/></a><a href="javascript:void(0)" target="_blank"><text x="1612" y="45.68571428571428" font-family="Georgia, serif" font-style="italic" font-size="16" fill="#333">Linear Space</text></a><a href="javascript:void(0)"><circle cx="1300" cy="75" r="8" stroke="#FF6347" fill="#FFB6C1" stroke-width="2"/></a><a href="javascript:void(0)" target="_blank"><text x="1312" y="81.4" font-family="Georgia, serif" font-style="italic" font-size="16" fill="#333">Module</text></a><path d="M 1008 55 C 1150 55 1150 125 1292 125" stroke="#8888FF" fill="none" stroke-width="1"/><path d="M 1308 125 C 1300 125 1300 275 1292 275" stroke="#8888FF" fill="none" stroke-width="1"/><path d="M 1308 125 C 1450 125 1450 117.85714285714286 1592 117.85714285714286" stroke="#8888FF" fill="none" stroke-width="1"/><path d="M 1308 125 C 1450 125 1450 196.42857142857142 1592 196.42857142857142" stroke="#8888FF" fill="none" stroke-width="1"/><a href="javascript:void(0)"><circle cx="1300" cy="125" r="8" stroke="#FF6347" fill="#FFB6C1" stroke-width="2"/></a><a href="javascript:void(0)" target="_blank"><text x="1312" y="131.4" font-family="Georgia, serif" font-style="italic" font-size="16" fill="#333">Field</text></a><a href="javascript:void(0)"><circle cx="1000" cy="55" r="8" stroke="#FF6347" fill="#FFB6C1" stroke-width="2"/></a><a href="javascript:void(0)" target="_blank"><text x="1012" y="61.4" font-family="Georgia, serif" font-style="italic" font-size="16" fill="#333">Ring</text></a><path d="M 708 78.57142857142857 C 850 78.57142857142857 850 165 992 165" stroke="#8888FF" fill="none" stroke-width="1"/><path d="M 1008 165 C 1150 165 1150 175 1292 175" stroke="#8888FF" fill="none" stroke-width="1"/><a href="javascript:void(0)"><circle cx="1300" cy="175" r="8" stroke="#FF6347" fill="#FFB6C1" stroke-width="2"/></a><a href="javascript:void(0)" target="_blank"><text x="1312" y="181.4" font-family="Georgia, serif" font-style="italic" font-size="16" fill="#333">Boolean Algebra</text></a><a href="javascript:void(0)"><circle cx="1000" cy="165" r="8" stroke="#FF6347" fill="#FFB6C1" stroke-width="2"/></a><a href="javascript:void(0)" target="_blank"><text x="1012" y="171.4" font-family="Georgia, serif" font-style="italic" font-size="16" fill="#333">Lattice</text></a><path d="M 708 78.57142857142857 C 850 78.57142857142857 850 275 992 275" stroke="#8888FF" fill="none" stroke-width="1"/><path d="M 1008 275 C 1150 275 1150 225 1292 225" stroke="#8888FF" fill="none" stroke-width="1"/><a href="javascript:void(0)"><circle cx="1000" cy="275" r="8" stroke="#FF6347" fill="#FFB6C1" stroke-width="2"/></a><a href="javascript:void(0)" target="_blank"><text x="1012" y="281.4" font-family="Georgia, serif" font-style="italic" font-size="16" fill="#333">Group</text></a><a href="javascript:void(0)"><circle cx="700" cy="78.57142857142857" r="8" stroke="#FF6347" fill="#FFB6C1" stroke-width="2"/></a><a href="javascript:void(0)" target="_blank"><text x="712" y="84.97142857142858" font-family="Georgia, serif" font-style="italic" font-size="16" fill="#333">Algebra Structure</text></a><path d="M 408 275 C 550 275 550 235.71428571428572 692 235.71428571428572" stroke="#8888FF" fill="none" stroke-width="1"/><path d="M 708 235.71428571428572 C 850 235.71428571428572 850 385 992 385" stroke="#8888FF" fill="none" stroke-width="1"/><a href="javascript:void(0)"><circle cx="700" cy="235.71428571428572" r="8" stroke="#FF6347" fill="#FFB6C1" stroke-width="2"/></a><a href="javascript:void(0)" target="_blank"><text x="712" y="242.11428571428573" font-family="Georgia, serif" font-style="italic" font-size="16" fill="#333">Natural Number</text></a><path d="M 408 275 C 550 275 550 392.85714285714283 692 392.85714285714283" stroke="#8888FF" fill="none" stroke-width="1"/><a href="javascript:void(0)"><circle cx="700" cy="392.85714285714283" r="8" stroke="#FF6347" fill="#FFB6C1" stroke-width="2"/></a><a href="javascript:void(0)" target="_blank"><text x="712" y="399.2571428571428" font-family="Georgia, serif" font-style="italic" font-size="16" fill="#333">Ordered Set</text></a><path d="M 408 275 C 550 275 550 550 692 550" stroke="#8888FF" fill="none" stroke-width="1"/><path d="M 708 550 C 850 550 850 495 992 495" stroke="#8888FF" fill="none" stroke-width="1"/><a href="javascript:void(0)"><circle cx="1000" cy="495" r="8" stroke="#FF6347" fill="#FFB6C1" stroke-width="2"/></a><a href="javascript:void(0)" target="_blank"><text x="1012" y="501.4" font-family="Georgia, serif" font-style="italic" font-size="16" fill="#333">Bipartite Graph</text></a><path d="M 708 550 C 850 550 850 605 992 605" stroke="#8888FF" fill="none" stroke-width="1"/><a href="javascript:void(0)"><circle cx="1000" cy="605" r="8" stroke="#FF6347" fill="#FFB6C1" stroke-width="2"/></a><a href="javascript:void(0)" target="_blank"><text x="1012" y="611.4" font-family="Georgia, serif" font-style="italic" font-size="16" fill="#333">Tree</text></a><path d="M 708 550 C 850 550 850 715 992 715" stroke="#8888FF" fill="none" stroke-width="1"/><a href="javascript:void(0)"><circle cx="1000" cy="715" r="8" stroke="#FF6347" fill="#FFB6C1" stroke-width="2"/></a><a href="javascript:void(0)" target="_blank"><text x="1012" y="721.4" font-family="Georgia, serif" font-style="italic" font-size="16" fill="#333">Directed Acyclic Graph</text></a><a href="javascript:void(0)"><circle cx="700" cy="550" r="8" stroke="#FF6347" fill="#FFB6C1" stroke-width="2"/></a><a href="javascript:void(0)" target="_blank"><text x="712" y="556.4" font-family="Georgia, serif" font-style="italic" font-size="16" fill="#333">Graph</text></a><path d="M 408 275 C 550 275 550 707.1428571428571 692 707.1428571428571" stroke="#8888FF" fill="none" stroke-width="1"/><a href="javascript:void(0)"><circle cx="700" cy="707.1428571428571" r="8" stroke="#FF6347" fill="#FFB6C1" stroke-width="2"/></a><a href="javascript:void(0)" target="_blank"><text x="712" y="713.5428571428571" font-family="Georgia, serif" font-style="italic" font-size="16" fill="#333">Fractal</text></a><path d="M 408 275 C 550 275 550 864.2857142857142 692 864.2857142857142" stroke="#8888FF" fill="none" stroke-width="1"/><path d="M 708 864.2857142857142 C 850 864.2857142857142 850 825 992 825" stroke="#8888FF" fill="none" stroke-width="1"/><path d="M 1008 825 C 1150 825 1150 425 1292 425" stroke="#8888FF" fill="none" stroke-width="1"/><a href="javascript:void(0)"><circle cx="1300" cy="425" r="8" stroke="#FF6347" fill="#FFB6C1" stroke-width="2"/></a><a href="javascript:void(0)" target="_blank"><text x="1312" y="431.4" font-family="Georgia, serif" font-style="italic" font-size="16" fill="#333">Radon Translation</text></a><path d="M 1008 825 C 1150 825 1150 475 1292 475" stroke="#8888FF" fill="none" stroke-width="1"/><path d="M 1008 825 C 1150 825 1150 525 1292 525" stroke="#8888FF" fill="none" stroke-width="1"/><a href="javascript:void(0)"><circle cx="1300" cy="525" r="8" stroke="#FF6347" fill="#FFB6C1" stroke-width="2"/></a><a href="javascript:void(0)" target="_blank"><text x="1312" y="531.4" font-family="Georgia, serif" font-style="italic" font-size="16" fill="#333">Dirac Delta Function</text></a><path d="M 1008 825 C 1150 825 1150 575 1292 575" stroke="#8888FF" fill="none" stroke-width="1"/><path d="M 1008 825 C 1150 825 1150 625 1292 625" stroke="#8888FF" fill="none" stroke-width="1"/><a href="javascript:void(0)"><circle cx="1300" cy="625" r="8" stroke="#FF6347" fill="#FFB6C1" stroke-width="2"/></a><a href="javascript:void(0)" target="_blank"><text x="1312" y="631.4" font-family="Georgia, serif" font-style="italic" font-size="16" fill="#333">Bessel Function</text></a><path d="M 1008 825 C 1150 825 1150 675 1292 675" stroke="#8888FF" fill="none" stroke-width="1"/><a href="javascript:void(0)"><circle cx="1300" cy="675" r="8" stroke="#FF6347" fill="#FFB6C1" stroke-width="2"/></a><a href="javascript:void(0)" target="_blank"><text x="1312" y="681.4" font-family="Georgia, serif" font-style="italic" font-size="16" fill="#333">Hilbert Transform</text></a><path d="M 1008 825 C 1150 825 1150 725 1292 725" stroke="#8888FF" fill="none" stroke-width="1"/><path d="M 1308 725 C 1450 725 1450 353.57142857142856 1592 353.57142857142856" stroke="#8888FF" fill="none" stroke-width="1"/><a href="javascript:void(0)"><circle cx="1600" cy="353.57142857142856" r="8" stroke="#FF6347" fill="#FFB6C1" stroke-width="2"/></a><a href="javascript:void(0)" target="_blank"><text x="1612" y="359.97142857142853" font-family="Georgia, serif" font-style="italic" font-size="16" fill="#333">Forth-Order Function</text></a><path d="M 1308 725 C 1450 725 1450 432.1428571428571 1592 432.1428571428571" stroke="#8888FF" fill="none" stroke-width="1"/><a href="javascript:void(0)"><circle cx="1600" cy="432.1428571428571" r="8" stroke="#FF6347" fill="#FFB6C1" stroke-width="2"/></a><a href="javascript:void(0)" target="_blank"><text x="1612" y="438.5428571428571" font-family="Georgia, serif" font-style="italic" font-size="16" fill="#333">Quadratic Function</text></a><path d="M 1308 725 C 1450 725 1450 510.7142857142857 1592 510.7142857142857" stroke="#8888FF" fill="none" stroke-width="1"/><a href="javascript:void(0)"><circle cx="1600" cy="510.7142857142857" r="8" stroke="#FF6347" fill="#FFB6C1" stroke-width="2"/></a><a href="javascript:void(0)" target="_blank"><text x="1612" y="517.1142857142858" font-family="Georgia, serif" font-style="italic" font-size="16" fill="#333">Linear Function</text></a><path d="M 1308 725 C 1450 725 1450 589.2857142857142 1592 589.2857142857142" stroke="#8888FF" fill="none" stroke-width="1"/><path d="M 1608 589.2857142857142 C 1750 589.2857142857142 1750 618.75 1892 618.75" stroke="#8888FF" fill="none" stroke-width="1"/><a href="javascript:void(0)"><circle cx="1900" cy="618.75" r="8" stroke="#FF6347" fill="#FFB6C1" stroke-width="2"/></a><a href="javascript:void(0)" target="_blank"><text x="1912" y="625.15" font-family="Georgia, serif" font-style="italic" font-size="16" fill="#333">Elliptic Curve</text></a><a href="javascript:void(0)"><circle cx="1600" cy="589.2857142857142" r="8" stroke="#FF6347" fill="#FFB6C1" stroke-width="2"/></a><a href="javascript:void(0)" target="_blank"><text x="1612" y="595.6857142857142" font-family="Georgia, serif" font-style="italic" font-size="16" fill="#333">Cubic Function</text></a><a href="javascript:void(0)"><circle cx="1300" cy="725" r="8" stroke="#FF6347" fill="#FFB6C1" stroke-width="2"/></a><a href="javascript:void(0)" target="_blank"><text x="1312" y="731.4" font-family="Georgia, serif" font-style="italic" font-size="16" fill="#333">Polynomial Function</text></a><path d="M 1008 825 C 1150 825 1150 775 1292 775" stroke="#8888FF" fill="none" stroke-width="1"/><path d="M 1008 825 C 1150 825 1150 825 1292 825" stroke="#8888FF" fill="none" stroke-width="1"/><a href="javascript:void(0)"><circle cx="1300" cy="825" r="8" stroke="#FF6347" fill="#FFB6C1" stroke-width="2"/></a><a href="javascript:void(0)" target="_blank"><text x="1312" y="831.4" font-family="Georgia, serif" font-style="italic" font-size="16" fill="#333">Laplace Transform</text></a><path d="M 1008 825 C 1150 825 1150 875 1292 875" stroke="#8888FF" fill="none" stroke-width="1"/><a href="javascript:void(0)"><circle cx="1300" cy="875" r="8" stroke="#FF6347" fill="#FFB6C1" stroke-width="2"/></a><a href="javascript:void(0)" target="_blank"><text x="1312" y="881.4" font-family="Georgia, serif" font-style="italic" font-size="16" fill="#333">Trigonometric Function</text></a><path d="M 1008 825 C 1150 825 1150 925 1292 925" stroke="#8888FF" fill="none" stroke-width="1"/><a href="javascript:void(0)"><circle cx="1300" cy="925" r="8" stroke="#FF6347" fill="#FFB6C1" stroke-width="2"/></a><a href="javascript:void(0)" target="_blank"><text x="1312" y="931.4" font-family="Georgia, serif" font-style="italic" font-size="16" fill="#333">Sequence</text></a><a href="javascript:void(0)"><circle cx="1000" cy="825" r="8" stroke="#FF6347" fill="#FFB6C1" stroke-width="2"/></a><a href="javascript:void(0)" target="_blank"><text x="1012" y="831.4" font-family="Georgia, serif" font-style="italic" font-size="16" fill="#333">Function</text></a><a href="javascript:void(0)"><circle cx="700" cy="864.2857142857142" r="8" stroke="#FF6347" fill="#FFB6C1" stroke-width="2"/></a><a href="javascript:void(0)" target="_blank"><text x="712" y="870.6857142857142" font-family="Georgia, serif" font-style="italic" font-size="16" fill="#333">Relation</text></a><path d="M 408 275 C 550 275 550 1021.4285714285714 692 1021.4285714285714" stroke="#8888FF" fill="none" stroke-width="1"/><path d="M 708 1021.4285714285714 C 850 1021.4285714285714 850 935 992 935" stroke="#8888FF" fill="none" stroke-width="1"/><path d="M 1008 935 C 1150 935 1150 975 1292 975" stroke="#8888FF" fill="none" stroke-width="1"/><path d="M 1008 935 C 1150 935 1150 1025 1292 1025" stroke="#8888FF" fill="none" stroke-width="1"/><path d="M 1308 1025 C 1450 1025 1450 903.5714285714286 1592 903.5714285714286" stroke="#8888FF" fill="none" stroke-width="1"/><path d="M 1308 1025 C 1150 1025 1150 935 992 935" stroke="#8888FF" fill="none" stroke-width="1"/><a href="javascript:void(0)"><circle cx="1300" cy="1025" r="8" stroke="#FF6347" fill="#FFB6C1" stroke-width="2"/></a><a href="javascript:void(0)" target="_blank"><text x="1312" y="1031.4" font-family="Georgia, serif" font-style="italic" font-size="16" fill="#333">Metric Space</text></a><a href="javascript:void(0)"><circle cx="1000" cy="935" r="8" stroke="#FF6347" fill="#FFB6C1" stroke-width="2"/></a><a href="javascript:void(0)" target="_blank"><text x="1012" y="941.4" font-family="Georgia, serif" font-style="italic" font-size="16" fill="#333">Topological Space</text></a><path d="M 708 1021.4285714285714 C 850 1021.4285714285714 850 1045 992 1045" stroke="#8888FF" fill="none" stroke-width="1"/><path d="M 1008 1045 C 1150 1045 1150 1075 1292 1075" stroke="#8888FF" fill="none" stroke-width="1"/><path d="M 1308 1075 C 1450 1075 1450 982.1428571428571 1592 982.1428571428571" stroke="#8888FF" fill="none" stroke-width="1"/><path d="M 1608 982.1428571428571 C 1750 982.1428571428571 1750 756.25 1892 756.25" stroke="#8888FF" fill="none" stroke-width="1"/><a href="javascript:void(0)"><circle cx="1900" cy="756.25" r="8" stroke="#FF6347" fill="#FFB6C1" stroke-width="2"/></a><a href="javascript:void(0)" target="_blank"><text x="1912" y="762.65" font-family="Georgia, serif" font-style="italic" font-size="16" fill="#333">Moment</text></a><a href="javascript:void(0)"><circle cx="1600" cy="982.1428571428571" r="8" stroke="#FF6347" fill="#FFB6C1" stroke-width="2"/></a><a href="javascript:void(0)" target="_blank"><text x="1612" y="988.5428571428571" font-family="Georgia, serif" font-style="italic" font-size="16" fill="#333">Random Variable</text></a><path d="M 1308 1075 C 1450 1075 1450 1060.7142857142858 1592 1060.7142857142858" stroke="#8888FF" fill="none" stroke-width="1"/><path d="M 1608 1060.7142857142858 C 1750 1060.7142857142858 1750 893.75 1892 893.75" stroke="#8888FF" fill="none" stroke-width="1"/><a href="javascript:void(0)"><circle cx="1900" cy="893.75" r="8" stroke="#FF6347" fill="#FFB6C1" stroke-width="2"/></a><a href="javascript:void(0)" target="_blank"><text x="1912" y="900.15" font-family="Georgia, serif" font-style="italic" font-size="16" fill="#333">Markov Process</text></a><path d="M 1608 1060.7142857142858 C 1750 1060.7142857142858 1750 1031.25 1892 1031.25" stroke="#8888FF" fill="none" stroke-width="1"/><a href="javascript:void(0)"><circle cx="1900" cy="1031.25" r="8" stroke="#FF6347" fill="#FFB6C1" stroke-width="2"/></a><a href="javascript:void(0)" target="_blank"><text x="1912" y="1037.65" font-family="Georgia, serif" font-style="italic" font-size="16" fill="#333">Martingale</text></a><a href="javascript:void(0)"><circle cx="1600" cy="1060.7142857142858" r="8" stroke="#FF6347" fill="#FFB6C1" stroke-width="2"/></a><a href="javascript:void(0)" target="_blank"><text x="1612" y="1067.1142857142859" font-family="Georgia, serif" font-style="italic" font-size="16" fill="#333">Stochastic Process</text></a><a href="javascript:void(0)"><circle cx="1300" cy="1075" r="8" stroke="#FF6347" fill="#FFB6C1" stroke-width="2"/></a><a href="javascript:void(0)" target="_blank"><text x="1312" y="1081.4" font-family="Georgia, serif" font-style="italic" font-size="16" fill="#333">Probability Space</text></a><a href="javascript:void(0)"><circle cx="1000" cy="1045" r="8" stroke="#FF6347" fill="#FFB6C1" stroke-width="2"/></a><a href="javascript:void(0)" target="_blank"><text x="1012" y="1051.4" font-family="Georgia, serif" font-style="italic" font-size="16" fill="#333">Measurable Space</text></a><a href="javascript:void(0)"><circle cx="700" cy="1021.4285714285714" r="8" stroke="#FF6347" fill="#FFB6C1" stroke-width="2"/></a><a href="javascript:void(0)" target="_blank"><text x="712" y="1027.8285714285714" font-family="Georgia, serif" font-style="italic" font-size="16" fill="#333">Power Set</text></a><a href="javascript:void(0)"><circle cx="400" cy="275" r="8" stroke="#FF6347" fill="#FFB6C1" stroke-width="2"/></a><a href="javascript:void(0)" target="_blank"><text x="412" y="281.4" font-family="Georgia, serif" font-style="italic" font-size="16" fill="#333">Set</text></a><path d="M 108 550 C 250 550 250 825 392 825" stroke="#8888FF" fill="none" stroke-width="1"/><a href="javascript:void(0)"><circle cx="400" cy="825" r="8" stroke="#FF6347" fill="#FFB6C1" stroke-width="2"/></a><a href="javascript:void(0)" target="_blank"><text x="412" y="831.4" font-family="Georgia, serif" font-style="italic" font-size="16" fill="#333">Logic</text></a><a href="javascript:void(0)"><circle cx="100" cy="550" r="8" stroke="#FF6347" fill="#FFB6C1" stroke-width="2"/></a><a href="javascript:void(0)" target="_blank"><text x="112" y="556.4" font-family="Georgia, serif" font-style="italic" font-size="16" fill="#333">root</text></a></svg>